<svg width="26" height="25" viewBox="0 0 26 25" fill="none" xmlns="http://www.w3.org/2000/svg">
<path fill-rule="evenodd" clip-rule="evenodd" d="M24.7899 4.98895C24.0772 4.16725 23.1087 3.78773 22.0438 3.37041L21.8796 3.30596C21.7936 3.27227 21.7069 3.24014 21.6202 3.20839C20.6302 2.84601 19.6034 2.61061 18.5732 2.38993L18.2944 2.33033C17.7477 2.21358 17.2012 2.09687 16.6595 1.96715C16.5011 1.92844 16.3439 1.8874 16.1867 1.84519C15.4556 1.64776 14.7353 1.41186 14.0149 1.1759C13.7549 1.09074 13.4948 1.00557 13.2342 0.922196C12.3879 0.651182 11.5358 0.400304 10.66 0.23305C10.5051 0.202851 10.3464 0.176525 10.1888 0.151746C9.14348 -0.0120233 8.07568 -0.0565466 7.03383 0.0843806C6.59901 0.141759 6.16953 0.234201 5.74961 0.36081C2.52029 1.34149 0.593382 4.21811 0.162857 7.49738C-0.0965419 9.47191 -0.116287 11.6226 0.632872 13.4965C1.32628 15.2317 2.52571 16.7289 3.86065 17.9988C6.92333 20.9074 10.7408 22.8982 14.8789 23.7447C16.1833 24.0079 17.5503 24.15 18.8307 23.7787C20.2183 23.3757 21.3879 22.3935 22.2784 21.2393C23.7562 19.324 24.7682 17.0634 25.3598 14.6963C25.7296 13.208 25.9397 11.6846 25.9866 10.1518C26.0718 7.40678 25.594 5.91659 24.7899 4.98895ZM13.0074 12.4585C13.0074 13.8472 12.1169 14.6967 10.3917 14.6967H6.1329C5.79568 14.6967 5.6474 14.5484 5.6474 14.2112V12.6339C5.6474 12.2966 5.79568 12.1484 6.1329 12.1484H9.51709C9.94839 12.1484 10.0293 11.9594 10.0293 11.7438V11.3798C10.0293 11.1642 9.94839 10.9888 9.51709 10.9888H6.13716C5.80033 10.9888 5.65205 10.8405 5.65205 10.5033V9.05958C5.65205 8.72275 5.80033 8.57407 6.13716 8.57407H8.64055C9.07185 8.57407 9.15277 8.38553 9.15277 8.16988V7.96739C9.15277 7.75175 9.07185 7.56319 8.64055 7.56319H6.13135C5.79414 7.56319 5.64585 7.41491 5.64585 7.0777V5.47445C5.64585 5.13724 5.79414 4.98895 6.13135 4.98895H9.89302C11.3894 4.98895 12.1041 5.73076 12.1041 6.91702V7.69909C12.1041 8.38669 11.902 8.89929 11.3085 9.15521C12.5892 9.30349 13.0074 9.92372 13.0074 11.11V12.4585ZM22.597 16.0161C22.597 16.3793 22.4371 16.5392 22.0735 16.5392H19.8357C19.4726 16.5392 19.3127 16.3793 19.3127 16.0161V14.7056H16.8569C14.9679 14.7056 14.2122 13.9502 14.2122 12.2935V5.51201C14.2122 5.14885 14.3721 4.98895 14.7353 4.98895H16.9878C17.3509 4.98895 17.5108 5.14885 17.5108 5.51201V11.1746C17.5108 11.4797 17.6851 11.6687 17.9611 11.6687H19.3127V7.09395C19.3127 6.7308 19.4726 6.5709 19.8357 6.5709H22.0735C22.4371 6.5709 22.597 6.7308 22.597 7.09395V16.0161ZM6.69626 16.6363H6.2549C6.17166 16.6363 6.13256 16.5938 6.13256 16.5024V16.4861C6.13256 16.3932 6.17127 16.3495 6.2549 16.3495H7.12834V15.9395H6.10662C5.8236 15.9395 5.64783 16.0792 5.64783 16.3046V16.6658C5.64783 16.8981 5.82786 17.0491 6.10662 17.0491H6.54759C6.63083 17.0491 6.66994 17.0916 6.66994 17.1834V17.2221C6.66994 17.315 6.63122 17.3584 6.54759 17.3584H5.67222V17.7707H6.69626C6.97889 17.7707 7.15466 17.631 7.15466 17.4056V17.0216C7.15466 16.787 6.97463 16.6363 6.69626 16.6363ZM8.52637 17.4041V16.3227C8.52637 16.0901 8.7064 15.9395 8.98516 15.9395H9.96932V16.3495H9.13576C9.05213 16.3495 9.01342 16.3924 9.01342 16.4838V16.648H9.94261V17.0584H9.01342V17.2225C9.01342 17.3154 9.05213 17.3588 9.13576 17.3588H9.96932V17.7692H8.98516C8.70214 17.7692 8.52637 17.6294 8.52637 17.4041ZM12.4986 16.9521L11.8946 16.0933C11.8125 15.9772 11.7142 15.918 11.6027 15.918C11.4502 15.918 11.3472 16.0268 11.3472 16.189V17.7702H11.8342V16.8638L12.3011 17.5084C12.4804 17.7574 12.5993 17.7918 12.7007 17.7918C12.8896 17.7918 12.9853 17.6919 12.9853 17.4957V15.9389H12.4986V16.9521ZM14.4437 15.4961C14.4437 15.3997 14.5324 15.3223 14.6412 15.3223C14.75 15.3223 14.8386 15.4001 14.8386 15.4961C14.8386 15.5921 14.75 15.6695 14.6412 15.6695C14.5324 15.6695 14.4437 15.5925 14.4437 15.4961ZM14.3992 17.7703H14.6423C14.7069 17.7703 14.7688 17.7447 14.8145 17.699C14.8602 17.6533 14.8858 17.5914 14.8858 17.5268V15.9395H14.6423C14.5778 15.9395 14.516 15.9651 14.4704 16.0107C14.4248 16.0563 14.3992 16.1181 14.3992 16.1826V17.7703ZM17.4473 16.9521V15.9389H17.934V17.4972C17.934 17.6935 17.8384 17.7934 17.6498 17.7934C17.548 17.7934 17.4291 17.7589 17.2499 17.51L16.7826 16.8638V17.7702H16.2959V16.189C16.2959 16.0268 16.3985 15.918 16.551 15.918C16.6625 15.918 16.7609 15.9772 16.843 16.0933L17.4473 16.9521Z" fill="white"/>
</svg>
